<svg version="1.1" id="Layer_1" xmlns="http://www.w3.org/2000/svg" xmlns:xlink="http://www.w3.org/1999/xlink" x="0px" y="0px"
	 width="100%" viewBox="0 0 496 496" enable-background="new 0 0 496 496" xml:space="preserve">
<path fill="#000000" opacity="1.000000" stroke="none" 
	d="
M160.944275,242.055115 
	C173.050629,252.798645 186.512741,261.319061 197.995392,272.266174 
	C201.987457,276.072052 205.680099,280.169189 208.186966,285.116119 
	C210.448868,289.579681 211.653427,294.346344 210.299332,300.375641 
	C216.865997,294.383850 223.634979,291.157043 231.504410,290.316803 
	C233.384155,290.116089 235.297714,289.960663 236.880310,290.843994 
	C239.219666,292.149689 241.189148,293.471436 244.030594,291.709106 
	C245.459045,290.823151 247.275299,291.702911 248.357803,293.261353 
	C249.651703,295.124084 248.905777,296.688141 247.694443,298.245789 
	C244.219833,302.713928 240.693619,307.146454 237.368317,311.724182 
	C235.852951,313.810303 234.762512,316.205109 233.825928,317.850830 
	C280.881134,313.308807 327.982330,316.731506 374.986725,315.667755 
	C376.152374,315.641357 377.319489,315.683868 378.485443,315.665314 
	C381.440674,315.618195 384.820282,315.699860 384.715881,319.565155 
	C384.613464,323.358124 381.190369,323.318909 378.269135,323.318390 
	C340.947937,323.311707 303.625854,323.451874 266.306030,323.224274 
	C255.222427,323.156708 244.456070,324.112457 233.799133,327.343292 
	C226.248978,329.632263 223.099350,326.496948 224.302200,317.977234 
	C221.247742,320.001740 218.621597,321.794556 215.944321,323.507507 
	C205.484879,330.199677 201.583832,328.448059 200.175095,316.675171 
	C181.102005,327.762573 160.865723,331.140625 139.342255,325.356415 
	C132.268478,323.455383 126.141815,319.747040 121.427383,314.086548 
	C115.529922,307.005585 115.891129,297.774200 122.075630,292.594604 
	C124.544487,290.526947 127.432770,289.117615 130.108276,291.760010 
	C132.766891,294.385742 131.758698,297.211426 129.227509,299.574554 
	C125.980736,302.605743 127.083138,305.595612 129.532593,308.330170 
	C134.068008,313.393494 140.008392,315.952515 146.574188,316.954834 
	C161.559341,319.242554 176.100266,317.971649 189.822495,310.962189 
	C193.469681,309.099182 196.444870,306.505127 198.541840,302.963806 
	C201.525650,297.924835 201.726791,292.903656 198.359177,287.938782 
	C193.224411,280.368622 186.046265,274.900238 179.082443,269.210968 
	C168.644775,260.683655 157.367569,253.161697 148.144669,243.181274 
	C131.331711,224.987396 132.925583,207.380814 153.158920,192.933716 
	C168.565002,181.933380 186.176804,176.683578 204.837173,174.701981 
	C212.962067,173.839157 221.103348,173.330688 229.129318,175.586044 
	C236.404099,177.630310 239.149948,183.210754 236.208023,190.198334 
	C234.250046,194.848862 231.146561,198.792267 228.070526,202.730988 
	C223.760498,208.249786 219.665588,213.909561 216.222610,220.023544 
	C212.799377,226.102448 210.697403,232.510803 211.435699,239.578415 
	C211.790115,242.971039 211.189621,245.871613 207.284256,246.177719 
	C203.089172,246.506561 202.079742,243.289474 201.733124,239.928925 
	C200.495926,227.934311 205.280365,217.767593 211.742371,208.234711 
	C215.757858,202.310989 220.176758,196.660980 224.405807,190.881668 
	C225.572021,189.287918 226.727631,187.680222 227.025406,184.988800 
	C220.965546,183.624039 214.975601,183.942001 209.116074,184.376205 
	C190.383820,185.764252 172.677536,190.532593 157.478546,202.156677 
	C143.684738,212.706055 142.897064,223.113998 154.631744,235.855865 
	C156.547348,237.935883 158.662064,239.832550 160.944275,242.055115 
M215.742645,306.244568 
	C210.978455,311.461914 209.818207,313.552094 209.303497,318.157349 
	C217.916992,312.697052 225.705704,306.684296 232.465271,299.356293 
	C225.560959,298.326447 220.884171,301.982391 215.742645,306.244568 
z"/>
</svg>